<svg xmlns="http://www.w3.org/2000/svg" viewBox="190 40 276 177" role="img" aria-labelledby="title desc">
  <title id="title">Together connected g-e icon</title>
  <desc id="desc">The exact connected g-e geometry extracted from the supplied Together wordmark.</desc>
  <path
    d="M 204.00 104.00 L 204.00 109.00 L 205.00 118.00 L 208.00 128.00 L 211.00 134.00 L 215.00 140.00 L 224.00 149.00 L 230.00 153.00 L 239.00 157.00 L 247.00 159.00 L 267.00 159.00 L 272.00 158.00 L 278.00 156.00 L 286.00 151.00 L 288.00 153.00 L 288.00 164.00 L 287.00 170.00 L 284.00 177.00 L 276.00 185.00 L 269.00 188.00 L 265.00 189.00 L 247.00 189.00 L 240.00 187.00 L 236.00 185.00 L 228.00 177.00 L 211.00 178.00 L 213.00 183.00 L 218.00 190.00 L 224.00 195.00 L 229.00 198.00 L 240.00 202.00 L 246.00 203.00 L 267.00 203.00 L 276.00 201.00 L 281.00 199.00 L 288.00 195.00 L 296.00 187.00 L 300.00 180.00 L 302.00 174.00 L 303.00 168.00 L 303.00 137.00 L 306.00 134.00 L 306.00 133.00 L 308.00 131.00 L 309.00 131.00 L 312.00 128.00 L 315.00 126.00 L 320.00 124.00 L 340.00 124.00 L 346.00 126.00 L 352.00 130.00 L 357.00 135.00 L 357.00 136.00 L 363.00 143.00 L 367.00 147.00 L 374.00 152.00 L 382.00 156.00 L 388.00 158.00 L 393.00 159.00 L 413.00 159.00 L 418.00 158.00 L 427.00 155.00 L 431.00 153.00 L 437.00 149.00 L 444.00 142.00 L 446.00 139.00 L 451.00 128.00 L 433.00 129.00 L 430.00 134.00 L 427.00 137.00 L 423.00 140.00 L 414.00 144.00 L 408.00 145.00 L 398.00 145.00 L 390.00 143.00 L 385.00 141.00 L 379.00 137.00 L 363.00 120.00 L 358.00 116.00 L 350.00 112.00 L 344.00 110.00 L 337.00 109.00 L 323.00 109.00 L 314.00 111.00 L 311.00 112.00 L 305.00 115.00 L 302.00 117.00 L 283.00 136.00 L 279.00 139.00 L 273.00 142.00 L 267.00 144.00 L 262.00 145.00 L 254.00 145.00 L 245.00 143.00 L 236.00 138.00 L 227.00 129.00 L 223.00 122.00 L 221.00 115.00 L 221.00 99.00 L 223.00 92.00 L 226.00 86.00 L 229.00 82.00 L 234.00 77.00 L 238.00 74.00 L 247.00 70.00 L 252.00 69.00 L 263.00 69.00 L 268.00 70.00 L 274.00 72.00 L 281.00 76.00 L 285.00 79.00 L 297.00 92.00 L 302.00 96.00 L 310.00 100.00 L 320.00 103.00 L 341.00 103.00 L 349.00 101.00 L 354.00 99.00 L 359.00 96.00 L 363.00 93.00 L 371.00 84.00 L 375.00 80.00 L 376.00 80.00 L 381.00 75.00 L 387.00 72.00 L 397.00 69.00 L 409.00 69.00 L 414.00 70.00 L 421.00 73.00 L 424.00 75.00 L 429.00 80.00 L 433.00 86.00 L 435.00 92.00 L 436.00 97.00 L 393.00 98.00 L 389.00 100.00 L 386.00 103.00 L 386.00 112.00 L 453.00 112.00 L 453.00 99.00 L 452.00 93.00 L 449.00 83.00 L 445.00 75.00 L 442.00 71.00 L 435.00 64.00 L 429.00 60.00 L 425.00 58.00 L 416.00 55.00 L 410.00 54.00 L 396.00 54.00 L 390.00 55.00 L 383.00 57.00 L 373.00 62.00 L 369.00 65.00 L 360.00 75.00 L 352.00 83.00 L 345.00 87.00 L 338.00 89.00 L 323.00 89.00 L 316.00 87.00 L 312.00 85.00 L 309.00 83.00 L 292.00 65.00 L 286.00 61.00 L 280.00 58.00 L 274.00 56.00 L 265.00 54.00 L 250.00 54.00 L 245.00 55.00 L 238.00 57.00 L 228.00 62.00 L 225.00 64.00 L 215.00 74.00 L 211.00 80.00 L 208.00 86.00 L 205.00 96.00 Z"
    fill="#122741"
    fill-rule="evenodd"
    clip-rule="evenodd"
  />
</svg>

